<svg xmlns="http://www.w3.org/2000/svg" xmlns:xlink="http://www.w3.org/1999/xlink" viewBox="0 0 4871.27 1080"><defs><linearGradient id="a" x1="1493.99" y1="580.14" x2="4849.71" y2="479.85" gradientUnits="userSpaceOnUse"><stop offset="0" stop-color="#00b1ff"/><stop offset="1" stop-color="#2a4dff"/></linearGradient><linearGradient id="b" x1="1494.46" y1="595.93" x2="4850.18" y2="495.64" xlink:href="#a"/><linearGradient id="c" x1="1494.65" y1="602.14" x2="4850.36" y2="501.86" xlink:href="#a"/><linearGradient id="d" x1="1495.05" y1="615.43" x2="4850.76" y2="515.14" xlink:href="#a"/><linearGradient id="e" x1="1495.24" y1="621.91" x2="4850.96" y2="521.62" xlink:href="#a"/><linearGradient id="f" x1="1495.56" y1="632.52" x2="4851.27" y2="532.23" xlink:href="#a"/><linearGradient id="g" x1="1495.98" y1="646.57" x2="4851.69" y2="546.28" xlink:href="#a"/><linearGradient id="h" x1="1498.13" y1="718.73" x2="4853.85" y2="618.44" xlink:href="#a"/><linearGradient id="i" x1="1498.51" y1="731.19" x2="4854.22" y2="630.9" xlink:href="#a"/></defs><rect width="1080" height="1080" rx="144.06" style="fill:#00b1ff"/><path d="M935.67,1080H653.73S540,974.83,540,974.83L503.32,926.5a192,192,0,0,0,21.27-10.9c-.77-.79-18.31-18.31-18.79-18.84-9.86-9.58-14.94-20.85-14.94-33.77,0-17.48,7.37-31.42,19.38-42.23-1.06-1-11.26-11.22-12.42-12.46-9.24-8.16-13.31-18.14-13.26-31.3,0-14.87,5.65-26.4,17.18-35.36-1-1-15.51-15.35-16.51-16.51-9-8.82-13.44-19.84-13.67-34.23-.36-23.76,10.67-37,27.8-47.47-.73-.7-24.18-24.12-25.24-25.25-13-12.33-19-27.15-19-46.39a59.68,59.68,0,0,1,5-24.6c-1.59-1.72-63.22-63.16-65.18-65.28a45.24,45.24,0,0,1-13.05-20.7C379.34,458.75,191,270.55,189,268.27c-5.46-4.8-7.28-9.28-4.77-11.78.44-.44,2-1,4.36-1.57-1.17-1.17-56.41-56.39-57.51-57.62-5.76-5.27-8-9.7-6-11.78,3-3.22,59.44-3.29,114-2.87,2.12,5.33,32.71,34.74,40.33,38.63-.06-.07-.11-.12-.16-.19-9.35-8.93-28.66-26.53-33.42-38.37,39.29,0,97.18,1.28,99.38.28,4.21-1.87,39.45-18.13,71.46-13.14,17.22,2.7,29.23,8.94,36.65,16.94.9.79,62,62,63.16,63,0-4.82,0-7.7,0-8.16.7-3.88,3.43-9.95,7.33-15.25L508.23,211a36.48,36.48,0,0,1-8.36-23.22c0-20.67,17.28-37.43,38.61-37.43a39,39,0,0,1,24.29,8.36s54.54,54.55,54.57,54.57C615,194,629,175.15,662.85,169.86c32-5,67.23,11.27,71.43,13.14,2.19,1,60.1-.28,99.39-.28-1.51,3.71,3.32,8.81,6.73-.07,54.53-.42,110.92-.35,114,2.87-13.12-13.88,125.37,125.92,125.37,125.92v624.5A144.06,144.06,0,0,1,935.67,1080Z" transform="translate(0.27)" style="fill:#00377a"/><path d="M895.23,256.49c-2.3-2.3-32.63-6.77-68.79-11.38l-1.52,1.61c-14.31,15.26-50.45,27.21-82.78,27.56,21.29,6.14,45.45,11.67,67.67,13.41C867.8,292.17,903.19,264.43,895.23,256.49Z" transform="translate(0.27)" style="fill:#fff"/><path d="M696,229.87s67.43,7.17,123.23,14.2c-15,16-56.82,29.09-92.19,26.11-27.9-8.71-48.38-17.4-48.38-17.4Z" transform="translate(0.27)" style="fill:#fff"/><path d="M824.09,314.53c-1.07-2.07-22.7-10.45-48.88-19.93L773,295.9c-10.19,5.93-27.39,9.46-46,9.46h0A133.37,133.37,0,0,1,701.81,303c14.24,7.94,30.61,15.79,46.66,20.66C792.09,336.94,827.87,321.9,824.09,314.53Z" transform="translate(0.27)" style="fill:#fff"/><path d="M677.79,260.57s50.13,16.89,91.26,31.71c-16.45,9.57-52.81,12.39-79.34,4.15-19-11.36-32.27-21.44-32.27-21.44Z" transform="translate(0.27)" style="fill:#fff"/><path d="M714,324.77l-2.2.7a63.7,63.7,0,0,1-19.17,2.6h0A101.7,101.7,0,0,1,653,319.94c8.37,8.73,18.38,17.68,29.15,24.21,29.73,18,63.14,11.27,62.76,4.52C744.79,346.8,731,336.63,714,324.77Z" transform="translate(0.27)" style="fill:#fff"/><path d="M646.22,278.94s33.62,22.07,60.84,41c-16.29,5.3-45.91,1.83-63.94-9.3a231.38,231.38,0,0,1-17.93-23Z" transform="translate(0.27)" style="fill:#fff"/><path d="M651.34,339.5l-1.87.17c-1.27.11-2.56.18-3.9.18-13,0-31.15-5.78-43-15.7,3.54,8.73,8.29,17.88,14.56,25.18,17.61,20.45,47.79,20.95,50,15.29C667.87,363.05,660.63,352.31,651.34,339.5Z" transform="translate(0.27)" style="fill:#fff"/><path d="M613.77,289.72S633,314.27,648.13,335c-15.48,1.43-38.59-6.88-49.17-19.45A157.2,157.2,0,0,1,593,293.12Z" transform="translate(0.27)" style="fill:#fff"/><path d="M598,354.85l-1.41-.53c-1-.36-1.92-.77-2.9-1.24-9.44-4.52-21.06-15.08-26.85-26.42.11,7.59,1,15.9,3.48,23.42,7,21,28.9,32,32.15,28.65C603.31,377.81,601.1,367.42,598,354.85Z" transform="translate(0.27)" style="fill:#fff"/><path d="M584.44,303.75s7,24.61,12.21,45c-11.74-4.37-26.19-18.5-30.33-31.36a128.08,128.08,0,0,1,2-18.44Z" transform="translate(0.27)" style="fill:#fff"/><path d="M954.36,185.52c-3-3.22-59.43-3.29-114-2.87l-.45,1.19c-5.94,14.8-25.56,35-61.6,46.29,33.5.84,70.59.66,94.73-2.86C929.41,219.15,960.24,191.78,954.36,185.52Z" transform="translate(0.27)" style="fill:#fff"/><path d="M539.74,296.29c81.13,0,92-56.32,92-56.32-25.87-24.92-18.91-62.28,31.12-70.11,32-5,67.23,11.27,71.43,13.14,2.19,1,60.1-.28,99.39-.28-4.83,12-24.14,36-69.1,47.08-34.56-1.87-66-3.31-66-3.31s-28.14,91.7-158.81,91.7Z" transform="translate(0.27)" style="fill:#fff"/><path d="M184.24,256.49c2.29-2.3,32.62-6.77,68.77-11.38l1.52,1.61c14.34,15.26,50.45,27.21,82.8,27.56-21.3,6.14-45.45,11.67-67.66,13.41C211.66,292.17,176.3,264.43,184.24,256.49Z" transform="translate(0.27)" style="fill:#fff"/><path d="M383.44,229.87S316,237,260.21,244.07c15.05,16,56.83,29.09,92.21,26.11,27.89-8.71,48.38-17.4,48.38-17.4Z" transform="translate(0.27)" style="fill:#fff"/><path d="M255.38,314.53c1.07-2.07,22.71-10.45,48.88-19.93l2.25,1.3c10.18,5.93,27.36,9.46,45.95,9.46h0a133.71,133.71,0,0,0,25.2-2.34C363.41,311,347,318.81,331,323.68,287.35,336.94,251.62,321.9,255.38,314.53Z" transform="translate(0.27)" style="fill:#fff"/><path d="M401.67,260.57s-50.13,16.89-91.25,31.71c16.45,9.57,52.78,12.39,79.32,4.15C408.75,285.07,422,275,422,275Z" transform="translate(0.27)" style="fill:#fff"/><path d="M365.44,324.77l2.23.7a63.54,63.54,0,0,0,19.16,2.6h0a101.66,101.66,0,0,0,39.61-8.13c-8.4,8.73-18.38,17.68-29.13,24.21-29.74,18-63.16,11.27-62.77,4.52C334.66,346.8,348.42,336.63,365.44,324.77Z" transform="translate(0.27)" style="fill:#fff"/><path d="M433.24,278.94s-33.6,22.07-60.86,41c16.32,5.3,45.92,1.83,63.95-9.3a230,230,0,0,0,17.95-23Z" transform="translate(0.27)" style="fill:#fff"/><path d="M428.12,339.5l1.88.17c1.27.11,2.56.18,3.9.18,13,0,31.14-5.78,42.94-15.7-3.54,8.73-8.27,17.88-14.55,25.18-17.59,20.45-47.8,20.95-50.08,15.29C411.59,363.05,418.84,352.31,428.12,339.5Z" transform="translate(0.27)" style="fill:#fff"/><path d="M465.68,289.72S446.49,314.27,431.31,335c15.49,1.43,38.6-6.88,49.19-19.45a158.16,158.16,0,0,0,5.95-22.43Z" transform="translate(0.27)" style="fill:#fff"/><path d="M481.51,354.85l1.41-.53c1-.36,1.93-.77,2.9-1.24,9.45-4.52,21.05-15.08,26.85-26.42-.1,7.59-1,15.9-3.48,23.42-7,21-28.87,32-32.15,28.65C476.13,377.81,478.38,367.42,481.51,354.85Z" transform="translate(0.27)" style="fill:#fff"/><path d="M495,303.75s-7,24.61-12.2,45c11.72-4.37,26.21-18.5,30.33-31.36a127.13,127.13,0,0,0-2-18.44Z" transform="translate(0.27)" style="fill:#fff"/><path d="M125.09,185.52c3-3.22,59.44-3.29,114-2.87l.47,1.19c6,14.8,25.55,35,61.59,46.29-33.51.84-70.6.66-94.73-2.86C150.07,219.15,119.22,191.78,125.09,185.52Z" transform="translate(0.27)" style="fill:#fff"/><path d="M539.74,296.29c-81.15,0-92-56.32-92-56.32,25.86-24.92,18.92-62.28-31.08-70.11-32-5-67.25,11.27-71.46,13.14-2.2,1-60.09-.28-99.38-.28,4.83,12,24.12,36,69.08,47.08,34.58-1.87,66-3.31,66-3.31s28.14,91.7,158.83,91.7Z" transform="translate(0.27)" style="fill:#fff"/><path d="M563.43,241.69c-1.47-8.14-11.73-26-23.48-26s-22,17.84-23.45,26S534.1,974.83,540,974.83,564.91,249.83,563.43,241.69Z" transform="translate(0.27)" style="fill:#fff"/><path d="M517.69,176.43a48,48,0,0,1,45.08-17.73,39,39,0,0,0-24.29-8.36c-21.33,0-38.61,16.76-38.61,37.43A36.48,36.48,0,0,0,508.23,211,45.21,45.21,0,0,1,517.69,176.43Z" transform="translate(0.27)" style="fill:#fff"/><path d="M514,217a39.16,39.16,0,0,0,26,9.75c21.31,0,38.6-16.74,38.6-37.43a36.64,36.64,0,0,0-9.76-24.81,44.89,44.89,0,0,0-47,15.5A42,42,0,0,0,514,217Z" transform="translate(0.27)" style="fill:#fff"/><path d="M482.68,514C494,507.09,508,501.4,526.14,496.45c-.87-.13-1.75-.33-2.61-.52-6-1.11-12.44-2.3-19.67-3.47-47.09-8-95.74-16.18-95.74-42.16,0-18.86,10.91-23.42,17.93-24.37l.62-30.81c-28,3.79-46.61,24.06-46.61,53.08,0,42.39,50.05,56.55,102.62,65.83Z" transform="translate(0.27)" style="fill:#fff"/><path d="M576.59,926.5a196.31,196.31,0,0,1-19.93-10.12c-2.41,1.24-5,2.41-7.6,3.55,0,0,.08,0,.15.07a241.72,241.72,0,0,0,27.38,6.5Z" transform="translate(0.27)" style="fill:#fff"/><path d="M578.31,641.66c21.14,12.22,30.37,27.37,30.05,49.24-.49,32.67-22.75,45.32-54.42,54.92-25.63,8-44.47,14.13-44.51,31.2-.05,11.71,8.36,17.36,24,22.7,0,0-7.66,4.25-12.22,6.83a116.57,116.57,0,0,0-13,9c-16.65-9.39-23.67-21.24-23.6-38.55,0-14.88,5.66-26.42,17.21-35.4,13.19-10.14,31.57-15.37,44.9-19.58,24.58-7.32,36.56-15,36.83-31.47.3-19.58-20.22-31.23-36.72-36.23,4.23-1.59,15-5.74,18.17-7C569.13,645.65,578.31,641.66,578.31,641.66Z" transform="translate(0.27)" style="fill:#fff"/><path d="M501.43,636.19c-32.47-15.55-46.28-34.8-46.28-64.4,0-22.19,9.75-39.14,29.84-51.85,23.86-15.13,60.06-22.36,91.07-27.48,47.1-8,95.74-16.18,95.74-42.16,0-18.86-10.86-23.42-17.94-24.37l-.59-30.81c30.7,3.53,45.25,24.26,45.25,53.85,0,42.7-49.39,56-102.47,65.26-52.61,9.15-116,18.19-116,57.56,0,24.35,14.37,33.77,42.8,46.64,4.27,1.92,8.33,4.08,8.33,4.08-4.07,1.46-8.92,3.34-13.27,5.19C511.13,630.63,501.43,636.19,501.43,636.19Z" transform="translate(0.27)" style="fill:#fff"/><path d="M570.67,821.37C583,833,589.07,846.85,589.07,863c0,19.52-11.37,35.37-33.72,47.11-15.78,8.22-34.62,13.25-52,16.4,27.84-12.26,60.16-33.19,60.88-63.47.23-11.2-5.47-22.18-19.48-29.77C543.47,832.58,568.79,822,570.67,821.37Z" transform="translate(0.27)" style="fill:#fff"/><path d="M526.24,630.08c29.55-12.9,73.67-19.32,73.67-58.29,0-24.48-24-35.77-47.55-43.2,16.21-3.55,29.4-5.47,43.55-8.05,19.42,12.68,28.89,29.42,28.89,51.25,0,29.13-13.41,48.23-44.82,63.69-54.77,23.38-84,27.48-83.54,55.07.26,16.61,12.65,23.8,33.28,30.37-10.39,3.59-21.17,8.05-30.11,14.56-19.05-10.15-27.73-24-28.05-44.58C471,656.26,494.4,643.78,526.24,630.08Z" transform="translate(0.27)" style="fill:#fff"/><path d="M527.29,808.87c23.45-12.57,43.3-13.52,43.23-31.85,0-12.28-10-18.52-21.29-23.2,6.55-2.14,18.66-5.38,30.39-11,10.58,8.78,15.74,20,15.78,34.18.11,34.38-28.2,39.57-55,53-14.22,7-25,17.16-24.69,33,.29,15,8.52,27.64,19.46,37.78a120.32,120.32,0,0,1-12.12,8.47c-21.41-11.64-32.22-27.21-32.22-46.29C490.86,838.29,505.39,820.51,527.29,808.87Z" transform="translate(0.27)" style="fill:#fff"/><path d="M662.46,429a46.21,46.21,0,0,1-24,12.5c-20.33,4-33.74,1.61-35.62-1.8s28.86-3.89,38-10.06S644.27,413,644.27,413s-7.46,7.87-20.93,10.57-34.87,2.95-35.56-3.64,29.85-31,65.49-24.79Zm-39.29-29.15c-4.1,1.3-7.78,4.36-7.25,5.95s6.1,2.65,10.19,1.32,7.31-4,6.78-5.56S627.27,398.49,623.17,399.82Z" transform="translate(0.27)" style="fill:#fff"/><path d="M642.65,428.15s-12.47-3.86-21.26-3c-8.14.73-15.74,7.94-22.55,7.19-6-.64-11.05-4.57-12.82-4.3s-3.88,2.65,0,4.43,8.32,4.15,14.23,3.77c8.9-.53,16.43-6.66,22.83-6.66,6.14,0,16.16,3.58,16.16,3.58Z" transform="translate(0.27)" style="fill:#fff"/><path d="M426.65,395.12c35.66-6.24,66.17,18.19,65.48,24.79s-22.09,6.35-35.56,3.64S435.66,413,435.66,413s-5.77,10.43,3.39,16.63,39.89,6.64,38,10.06-15.26,5.77-35.63,1.8a46.2,46.2,0,0,1-24-12.5ZM447,401.53c-.51,1.59,2.67,4.26,6.77,5.56s9.72.27,10.21-1.32-3.19-4.65-7.27-5.95S447.56,399.93,447,401.53Z" transform="translate(0.27)" style="fill:#fff"/><path d="M437.28,428.15s12.5-3.86,21.23-3c8.16.73,15.75,7.94,22.56,7.19,6-.64,11.06-4.57,12.83-4.3s3.89,2.65,0,4.43-8.31,4.15-14.23,3.77c-8.88-.53-16.42-6.66-22.81-6.66-6.16,0-16.19,3.58-16.19,3.58Z" transform="translate(0.27)" style="fill:#fff"/><path d="M1800.53,733.43H1630.1l-23.67,80.2H1453.15l182.59-485.8h163.75L1982,813.63h-157.2Zm-31.14-105-53.62-174.64-53.06,174.64Z" transform="translate(0.27)" style="fill:url(#a)"/><path d="M2391.29,327.83v485.8H2265v-52q-26.51,33.15-48.38,44.74-29.16,15.24-65,15.24-71.91,0-109.85-54.68T2003.91,634q0-87.48,41.92-133.88t106.53-46.39q31.48,0,57.17,10.6a130.19,130.19,0,0,1,45.56,31.82V327.83Zm-135.2,308.84q0-41.42-17.57-61.8t-44.4-20.38q-23.53,0-39.44,19.55t-15.9,65.61q0,43.1,16.4,63.13t40.59,20.05q25.86,0,43.08-20.21T2256.09,636.67Z" transform="translate(0.27)" style="fill:url(#b)"/><path d="M2478.44,327.83h134.87v91.79H2478.44Zm0,133.87h134.87V813.63H2478.44Z" transform="translate(0.27)" style="fill:url(#c)"/><path d="M2862.18,327.83V461.7h74.23v98.76h-74.23V685.14q0,22.49,4.31,29.76,6.62,11.25,23.19,11.24,14.91,0,41.76-8.6l9.94,93.11q-50,10.94-93.45,10.93-50.37,0-74.23-12.91t-35.29-39.21Q2727,743.14,2727,684.23V560.46h-49.71V461.7H2727V397.09Z" transform="translate(0.27)" style="fill:url(#d)"/><path d="M2983.46,652.91,3126.29,644q4.64,34.8,18.89,53,23.19,29.5,66.27,29.5,32.15,0,49.54-15.08t17.4-35q0-18.88-16.57-33.8t-76.88-28.17q-98.74-22.2-140.83-59-42.42-36.79-42.42-93.79,0-37.44,21.71-70.75t65.28-52.35q43.56-19.05,119.46-19.06,93.12,0,142,34.63t58.15,110.18l-141.5,8.29q-5.64-32.81-23.69-47.72T3193.23,410q-26.19,0-39.44,11.1t-13.25,27q0,11.6,10.93,20.87,10.61,9.61,50.37,17.9,98.43,21.21,141,42.91t62,53.85q19.39,32.15,19.39,71.91a154,154,0,0,1-25.85,86.16q-25.84,39.43-72.24,59.81t-117,20.38q-123.93,0-171.65-47.71T2983.46,652.91Z" transform="translate(0.27)" style="fill:url(#e)"/><path d="M3495.78,327.83h134.87v91.79H3495.78Zm0,133.87h134.87V813.63H3495.78Z" transform="translate(0.27)" style="fill:url(#f)"/><path d="M4087.29,327.83v485.8H3961v-52q-26.51,33.15-48.38,44.74-29.16,15.24-65,15.24-71.91,0-109.85-54.68T3699.91,634q0-87.48,41.92-133.88t106.53-46.39q31.48,0,57.17,10.6a130.19,130.19,0,0,1,45.56,31.82V327.83Zm-135.2,308.84q0-41.42-17.57-61.8t-44.4-20.38q-23.53,0-39.44,19.55t-15.9,65.61q0,43.1,16.4,63.13t40.59,20.05q25.86,0,43.08-20.21T3952.09,636.67Z" transform="translate(0.27)" style="fill:url(#g)"/><path d="M4170.8,461.7h126.25v57.66q18.22-37.44,37.61-51.53t47.89-14.08q29.82,0,65.28,18.56l-41.75,96.1q-23.86-9.95-37.78-9.94-26.52,0-41.09,21.87-20.88,30.81-20.88,115.32v118H4170.8Z" transform="translate(0.27)" style="fill:url(#h)"/><path d="M4605.23,575.7l-128.9-13.59q7.28-33.79,21-53.18t39.6-33.64q18.55-10.26,51-15.91a412.11,412.11,0,0,1,70.25-5.63q60.65,0,97.43,6.79T4817,488.88q17.22,14.91,27.17,42.25t9.94,52.19V738.74q0,24.85,3.15,38.93t13.75,36H4744.41q-7.62-13.59-9.94-20.71t-4.64-22.37q-26.52,25.51-52.69,36.45-35.79,14.58-83.17,14.58-63,0-95.61-29.16t-32.64-71.91q0-40.1,23.53-65.94t86.82-38.44q75.89-15.24,98.42-21.38a456.12,456.12,0,0,0,47.72-16.07q0-24.85-10.27-34.79t-36.12-9.95q-33.15,0-49.71,10.61Q4613.18,552.83,4605.23,575.7Zm117,70.91q-27.84,9.95-58,17.57-41.1,10.94-52,21.54-11.26,10.93-11.26,24.85,0,15.9,11.1,26t32.64,10.11a83.94,83.94,0,0,0,41.92-10.94q19.38-10.93,27.5-26.67t8.12-40.93Z" transform="translate(0.27)" style="fill:url(#i)"/></svg>